<svg xmlns="http://www.w3.org/2000/svg" width="1280" height="582" viewBox="0 0 1280 582" role="img" aria-labelledby="title desc">
<title id="title">Zhou Heng&apos;s Development Market</title>
<desc id="desc">90 day development activity index rendered as weekly candlesticks with moving averages, latest index line, commit volume and repository watchlist.</desc>
<rect width="100%" height="100%" fill="#0d1117" rx="8"/>
<g font-family="-apple-system,BlinkMacSystemFont,Segoe UI,Helvetica,Arial,sans-serif">
<text x="82" y="42" fill="#f0f6fc" font-size="23" font-weight="650">Zhou Heng&apos;s Development Market</text>
<text x="82" y="70" fill="#8b949e" font-size="13">90D · weekly candles · activity index</text>
<text x="82" y="101" fill="#f0f6fc" font-size="25" font-weight="650">147.4</text>
<text x="158" y="101" fill="#f85149" font-size="14" font-weight="600">-21.5%</text>
<text x="1218" y="42" fill="#8b949e" font-size="12" text-anchor="end">7D 40 commits · 4/7 active days</text>
<text x="1218" y="66" fill="#8b949e" font-size="12" text-anchor="end">Breadth 1 · Focus 100%</text>
<line x1="82" y1="342.0" x2="1218" y2="342.0" stroke="#21262d" stroke-width="1"/>
<text x="1230" y="346.0" fill="#8b949e" font-size="11">0</text>
<line x1="82" y1="269.3" x2="1218" y2="269.3" stroke="#21262d" stroke-width="1"/>
<text x="1230" y="273.3" fill="#8b949e" font-size="11">125</text>
<line x1="82" y1="196.7" x2="1218" y2="196.7" stroke="#21262d" stroke-width="1"/>
<text x="1230" y="200.7" fill="#8b949e" font-size="11">250</text>
<line x1="82" y1="124.0" x2="1218" y2="124.0" stroke="#21262d" stroke-width="1"/>
<text x="1230" y="128.0" fill="#8b949e" font-size="11">375</text>
<polyline points="203.7,207.6 284.9,249.1 366.0,273.9 447.1,311.1 528.3,342.0 609.4,342.0 690.6,334.6 771.7,334.6 852.9,279.6 934.0,194.4 1015.1,195.6 1096.3,245.9 1177.4,264.3" fill="none" stroke="#d29922" stroke-width="2.0" stroke-opacity="0.95" stroke-linecap="round" stroke-linejoin="round"/>
<polyline points="366.0,240.8 447.1,280.1 528.3,308.0 609.4,326.6 690.6,338.3 771.7,338.3 852.9,307.1 934.0,264.5 1015.1,237.6 1096.3,220.2 1177.4,230.0" fill="none" stroke="#58a6ff" stroke-width="2.0" stroke-opacity="0.95" stroke-linecap="round" stroke-linejoin="round"/>
<text x="82" y="116" fill="#d29922" font-size="11" font-weight="600">MA2 133.6</text>
<text x="150" y="116" fill="#58a6ff" font-size="11" font-weight="600">MA4 192.7</text>
<line x1="82" y1="256.3" x2="1218" y2="256.3" stroke="#f85149" stroke-width="1" stroke-dasharray="5 5" stroke-opacity="0.55"/>
<rect x="1226" y="246.3" width="48" height="20" rx="3" fill="#f85149"/>
<text x="1250.0" y="260.3" fill="#ffffff" font-size="10" text-anchor="middle">147.4</text>
<line x1="122.6" y1="184.6" x2="122.6" y2="193.3" stroke="#3fb950" stroke-width="2"/>
<rect x="110.6" y="184.6" width="24.0" height="8.7" fill="#3fb950" rx="1"><title>2026-06-01 · O 255.8 H 270.8 L 255.8 C 270.8 · 5 commits</title></rect>
<rect x="110.6" y="407.0" width="24.0" height="4.0" fill="#3fb950" opacity="0.55"/>
<text x="122.6" y="433" fill="#8b949e" font-size="11" text-anchor="middle">Jun 01</text>
<line x1="203.7" y1="175.2" x2="203.7" y2="230.7" stroke="#f85149" stroke-width="2"/>
<rect x="191.7" y="182.1" width="24.0" height="48.6" fill="#f85149" rx="1"><title>2026-06-08 · O 275.1 H 286.8 L 191.5 C 191.5 · 11 commits</title></rect>
<rect x="191.7" y="402.3" width="24.0" height="8.7" fill="#f85149" opacity="0.55"/>
<line x1="284.9" y1="235.8" x2="284.9" y2="267.6" stroke="#f85149" stroke-width="2"/>
<rect x="272.9" y="235.8" width="24.0" height="31.8" fill="#f85149" rx="1"><title>2026-06-15 · O 182.6 H 182.6 L 128.0 C 128.0 · 6 commits</title></rect>
<rect x="272.9" y="406.2" width="24.0" height="4.8" fill="#f85149" opacity="0.55"/>
<line x1="366.0" y1="248.7" x2="366.0" y2="280.2" stroke="#f85149" stroke-width="2"/>
<rect x="354.0" y="262.0" width="24.0" height="18.2" fill="#f85149" rx="1"><title>2026-06-22 · O 137.6 H 160.6 L 106.3 C 106.3 · 5 commits</title></rect>
<rect x="354.0" y="407.0" width="24.0" height="4.0" fill="#f85149" opacity="0.55"/>
<line x1="447.1" y1="288.8" x2="447.1" y2="342.0" stroke="#f85149" stroke-width="2"/>
<rect x="435.1" y="288.8" width="24.0" height="53.2" fill="#f85149" rx="1"><title>2026-06-29 · O 91.5 H 91.5 L 0.0 C 0.0 · 0 commits</title></rect>
<rect x="435.1" y="411.0" width="24.0" height="1.0" fill="#f85149" opacity="0.55"/>
<line x1="528.3" y1="342.0" x2="528.3" y2="342.0" stroke="#3fb950" stroke-width="2"/>
<rect x="516.3" y="342.0" width="24.0" height="3.0" fill="#3fb950" rx="1"><title>2026-07-06 · O 0.0 H 0.0 L 0.0 C 0.0 · 0 commits</title></rect>
<rect x="516.3" y="411.0" width="24.0" height="1.0" fill="#3fb950" opacity="0.55"/>
<text x="528.3" y="433" fill="#8b949e" font-size="11" text-anchor="middle">Jul 06</text>
<line x1="609.4" y1="342.0" x2="609.4" y2="342.0" stroke="#3fb950" stroke-width="2"/>
<rect x="597.4" y="342.0" width="24.0" height="3.0" fill="#3fb950" rx="1"><title>2026-07-13 · O 0.0 H 0.0 L 0.0 C 0.0 · 0 commits</title></rect>
<rect x="597.4" y="411.0" width="24.0" height="1.0" fill="#3fb950" opacity="0.55"/>
<line x1="690.6" y1="327.2" x2="690.6" y2="342.0" stroke="#3fb950" stroke-width="2"/>
<rect x="678.6" y="327.2" width="24.0" height="14.8" fill="#3fb950" rx="1"><title>2026-07-20 · O 0.0 H 25.4 L 0.0 C 25.4 · 1 commits</title></rect>
<rect x="678.6" y="410.2" width="24.0" height="1.0" fill="#3fb950" opacity="0.55"/>
<line x1="771.7" y1="327.2" x2="771.7" y2="342.0" stroke="#f85149" stroke-width="2"/>
<rect x="759.7" y="327.2" width="24.0" height="14.8" fill="#f85149" rx="1"><title>2026-07-27 · O 25.4 H 25.4 L 0.0 C 0.0 · 0 commits</title></rect>
<rect x="759.7" y="411.0" width="24.0" height="1.0" fill="#f85149" opacity="0.55"/>
<line x1="852.9" y1="217.2" x2="852.9" y2="311.1" stroke="#3fb950" stroke-width="2"/>
<rect x="840.9" y="217.2" width="24.0" height="94.0" fill="#3fb950" rx="1"><title>2026-08-03 · O 53.1 H 214.7 L 53.1 C 214.7 · 18 commits</title></rect>
<rect x="840.9" y="396.7" width="24.0" height="14.3" fill="#3fb950" opacity="0.55"/>
<text x="852.9" y="433" fill="#8b949e" font-size="11" text-anchor="middle">Aug 03</text>
<line x1="934.0" y1="165.8" x2="934.0" y2="250.4" stroke="#3fb950" stroke-width="2"/>
<rect x="922.0" y="171.7" width="24.0" height="51.5" fill="#3fb950" rx="1"><title>2026-08-10 · O 204.4 H 303.1 L 157.6 C 293.0 · 68 commits</title></rect>
<rect x="922.0" y="357.0" width="24.0" height="54.0" fill="#3fb950" opacity="0.55"/>
<line x1="1015.1" y1="159.1" x2="1015.1" y2="244.1" stroke="#f85149" stroke-width="2"/>
<rect x="1003.1" y="171.7" width="24.0" height="47.9" fill="#f85149" rx="1"><title>2026-08-17 · O 293.0 H 314.6 L 168.5 C 210.7 · 57 commits</title></rect>
<rect x="1003.1" y="365.7" width="24.0" height="45.3" fill="#f85149" opacity="0.55"/>
<line x1="1096.3" y1="213.7" x2="1096.3" y2="272.4" stroke="#f85149" stroke-width="2"/>
<rect x="1084.3" y="213.7" width="24.0" height="58.7" fill="#f85149" rx="1"><title>2026-08-24 · O 220.8 H 220.8 L 119.8 C 119.8 · 24 commits</title></rect>
<rect x="1084.3" y="391.9" width="24.0" height="19.1" fill="#f85149" opacity="0.55"/>
<line x1="1177.4" y1="252.8" x2="1177.4" y2="260.6" stroke="#f85149" stroke-width="2"/>
<rect x="1165.4" y="252.8" width="24.0" height="3.6" fill="#f85149" rx="1"><title>2026-08-31 · O 153.5 H 153.5 L 140.0 C 147.4 · 34 commits</title></rect>
<rect x="1165.4" y="384.0" width="24.0" height="27.0" fill="#f85149" opacity="0.55"/>
<text x="82" y="349" fill="#6e7681" font-size="10">VOLUME</text>
<text x="82" y="462" fill="#8b949e" font-size="12" font-weight="600">WATCHLIST</text>
<text x="735" y="462" fill="#8b949e" font-size="11" text-anchor="end">31D COMMITS</text>
<text x="865" y="462" fill="#8b949e" font-size="11" text-anchor="end">7D CHANGE</text>
<text x="82" y="480" fill="#f0f6fc" font-size="14" font-weight="600">AxDr_L_Motor</text>
<text x="735" y="480" fill="#c9d1d9" font-size="13" text-anchor="end">190</text>
<text x="865" y="480" fill="#f85149" font-size="13" font-weight="600" text-anchor="end">-20.0%</text>
<polyline points="925.0,486.0 934.5,482.2 944.0,485.5 953.5,486.0 963.0,486.0 972.5,486.0 982.0,486.0 991.5,486.0 1001.0,486.0 1010.5,485.5 1020.0,464.0 1029.5,475.3 1039.0,483.3 1048.5,486.0 1058.0,473.7 1067.5,485.5 1077.0,485.5 1086.5,486.0 1096.0,486.0 1105.5,468.8 1115.0,481.7 1124.5,480.6 1134.0,486.0 1143.5,486.0 1153.0,486.0 1162.5,486.0 1172.0,482.8 1181.5,472.6 1191.0,483.3 1200.5,483.9 1210.0,486.0" fill="none" stroke="#f85149" stroke-width="2" stroke-linecap="round" stroke-linejoin="round"/>
<line x1="82" y1="490" x2="1218" y2="490" stroke="#21262d" stroke-width="1"/>
<text x="82" y="514" fill="#f0f6fc" font-size="14" font-weight="600">motor</text>
<text x="735" y="514" fill="#c9d1d9" font-size="13" text-anchor="end">9</text>
<text x="865" y="514" fill="#8b949e" font-size="13" font-weight="600" text-anchor="end">0.0%</text>
<polyline points="925.0,520.0 934.5,520.0 944.0,520.0 953.5,520.0 963.0,516.9 972.5,498.0 982.0,520.0 991.5,520.0 1001.0,520.0 1010.5,516.9 1020.0,520.0 1029.5,520.0 1039.0,520.0 1048.5,520.0 1058.0,520.0 1067.5,520.0 1077.0,520.0 1086.5,520.0 1096.0,520.0 1105.5,520.0 1115.0,520.0 1124.5,520.0 1134.0,520.0 1143.5,520.0 1153.0,520.0 1162.5,520.0 1172.0,520.0 1181.5,520.0 1191.0,520.0 1200.5,520.0 1210.0,520.0" fill="none" stroke="#8b949e" stroke-width="2" stroke-linecap="round" stroke-linejoin="round"/>
<text x="82" y="564" fill="#6e7681" font-size="10">Index 100 = recent 7D matches prior 56D weekly baseline · log scale · Excludes BJKJKZHOU/BJKJKZHOU</text>
<text x="1218" y="564" fill="#6e7681" font-size="10" text-anchor="end">Updated 2026-09-03 03:26 CST</text>
</g>
</svg>
